<?xml version="1.0" encoding="UTF-8"?>
<svg height="16px" viewBox="0 0 16 16" width="16px" xmlns="http://www.w3.org/2000/svg">
    <path d="m 1.386719 4 c -0.824219 0.070312 -1.4453128 0.789062 -1.386719 1.617188 v 8.382812 c 0 1.105469 0.894531 2 2 2 h 12 c 1.105469 0 2 -0.894531 2 -2 v -8 c 0 -1.105469 -0.894531 -2 -2 -2 h -1.320312 l -0.054688 0.066406 c 0.59375 0.832032 0.945312 1.84375 0.945312 2.933594 c 0 2.78125 -2.289062 5.070312 -5.070312 5.070312 c -0.261719 0 -0.523438 -0.019531 -0.777344 -0.0625 l -1.398437 1.761719 c 0 0.003907 0 0.003907 -0.003907 0.003907 c -0.808593 1.019531 -2.332031 1.1875 -3.347656 0.375 c -0.058594 -0.046876 -0.113281 -0.097657 -0.167968 -0.148438 h -0.199219 c -0.335938 0 -0.609375 -0.273438 -0.609375 -0.609375 v -0.78125 c 0 -0.117187 0.035156 -0.222656 0.089844 -0.316406 c -0.003907 -0.527344 0.164062 -1.058594 0.511718 -1.496094 l 0.632813 -0.796875 h -0.625 c -0.335938 0 -0.609375 -0.273438 -0.609375 -0.609375 v -0.78125 c 0 -0.335937 0.273437 -0.609375 0.609375 -0.609375 h 0.78125 c 0.050781 0 0.101562 0.007812 0.144531 0.019531 c -0.066406 -0.332031 -0.101562 -0.671875 -0.101562 -1.019531 s 0.035156 -0.6875 0.101562 -1.019531 c -0.042969 0.011719 -0.09375 0.019531 -0.144531 0.019531 h -0.78125 c -0.335938 0 -0.609375 -0.273438 -0.609375 -0.609375 v -0.78125 c 0.003906 -0.335937 -0.269532 -0.609375 -0.609375 -0.609375 z m 0 0" fill="#9141ac"/>
    <path d="m 5 12 l 8 -10"/>
    <path d="m 8.5 3.5 c -1.921875 0 -3.5 1.578125 -3.5 3.5 s 1.578125 3.5 3.5 3.5 s 3.5 -1.578125 3.5 -3.5 s -1.578125 -3.5 -3.5 -3.5 z m 0 2 c 0.839844 0 1.5 0.660156 1.5 1.5 s -0.660156 1.5 -1.5 1.5 s -1.5 -0.660156 -1.5 -1.5 s 0.660156 -1.5 1.5 -1.5 z m 0 0"/>
    <path d="m 5 12 l 8 -10"/>
    <path d="m 13.226562 0.953125 c -0.429687 -0.34375 -1.058593 -0.273437 -1.40625 0.15625 l -2.539062 3.203125 c -0.347656 0.433594 -0.277344 1.0625 0.15625 1.40625 c 0.429688 0.347656 1.058594 0.277344 1.40625 -0.15625 l 2.539062 -3.203125 c 0.347657 -0.429687 0.277344 -1.0625 -0.15625 -1.40625 z m 0 0"/>
    <path d="m 7.628906 8.300781 c -0.433594 -0.34375 -1.0625 -0.277343 -1.40625 0.15625 l -2.542968 3.203125 c -0.34375 0.433594 -0.273438 1.0625 0.15625 1.40625 c 0.433593 0.347656 1.0625 0.277344 1.40625 -0.15625 l 2.542968 -3.203125 c 0.34375 -0.429687 0.273438 -1.0625 -0.15625 -1.40625 z m 0 0"/>
</svg>
